<?xml version="1.0" encoding="utf-8"?>
<!-- Generator: Adobe Illustrator 19.1.0, SVG Export Plug-In . SVG Version: 6.00 Build 0)  -->
<!DOCTYPE svg PUBLIC "-//W3C//DTD SVG 1.1//EN" "http://www.w3.org/Graphics/SVG/1.1/DTD/svg11.dtd">
<svg version="1.1" id="Layer_1" xmlns="http://www.w3.org/2000/svg" xmlns:xlink="http://www.w3.org/1999/xlink" x="0px" y="0px"
	 width="410px" height="96px" viewBox="0 0 410 96" style="enable-background:new 0 0 410 96;" xml:space="preserve">
<style type="text/css">
	.st0{fill:url(#SVGID_1_);}
	.st1{fill:#EC600F;}
	.st2{opacity:0.65;fill:url(#SVGID_2_);}
	.st3{opacity:0.65;fill:url(#SVGID_3_);}
	.st4{opacity:0.65;fill:url(#SVGID_4_);}
	.st5{opacity:0.65;fill:url(#SVGID_5_);}
	.st6{fill:url(#SVGID_6_);}
</style>
<linearGradient id="SVGID_1_" gradientUnits="userSpaceOnUse" x1="286.6238708" y1="2.3443196" x2="286.6238708" y2="75.0123901">
	<stop  offset="0.4119569" style="stop-color:#4B4B4E"/>
	<stop  offset="0.7790206" style="stop-color:#120F0A"/>
</linearGradient>
<path class="st0" d="M205.1728821,33.0900269C217.368866,20.8959961,231.1938782,9.4219971,246.4258728,0
	c0.9320068,1.3619995,3.1170044,5.9349976,3.1170044,5.9349976s-36.3330078,33.1589966-49.9570007,67.335022
	c-1.118988-0.052002-1.7390137-1.2590332-2.3649902-1.9330444c-10.6100159-11.4979858-22.9260254-22.5849609-33.5180054-34.3789673
	c3.1300049-2.2410278,5.8779907-4.8649902,9.0249939-7.0939941c7.0029907,5.1019897,13.6910095,10.5180054,20.4129944,15.9019775
	C197.3608704,41.7440186,201.0908813,37.1680298,205.1728821,33.0900269 M229.9408875,64.927002
	c0.8339844,0.742981,2.039978,1.1129761,3.6199951,1.1129761c2.5950012,0,4.6369934-0.7409668,6.1219788-2.2269897
	c1.4840088-1.4819946,2.2260132-3.5239868,2.2260132-6.125v-3.4799805c-1.2990112,0.651001-3.1090088,1.2550049-5.4259949,1.8099976
	l-3.2019958,0.6970215c-1.6719971,0.4649658-2.8789978,1.0669556-3.6190186,1.8099976
	c-0.6499939,1.0199585-0.9749756,2.0409546-0.9749756,3.0609741
	C228.6868896,62.9790039,229.1048889,64.0900269,229.9408875,64.927002 M224.5118713,38.2030029
	c2.506012-2.1339722,6.0750122-3.2020264,10.7170105-3.2020264c5.1950073,0,9.0929871,0.8829956,11.690979,2.6450195
	c2.6900024,1.8569946,4.0380249,4.4530029,4.0380249,7.7949829v12.6669922c0,3.7120361-0.6760254,6.6100464-2.0200195,8.6970215
	c-1.3450012,2.0880127-2.9459839,3.5960083-4.8009949,4.5239868c-1.947998,1.0209961-4.0140076,1.6450195-6.1929932,1.8790283
	c-2.1820068,0.2310181-4.1069946,0.3480225-5.7770081,0.3480225c-3.3399963,0-6.2630005-0.9060059-8.7689819-2.7140503
	c-2.506012-1.80896-3.7580261-4.802002-3.7580261-8.9769897c0-3.8980103,1.1360168-6.6820068,3.4100037-8.3529663
	c2.2730103-1.6690063,5.1719971-2.7820435,8.7000122-3.3390503c0.4620056,0,1.019989-0.0709839,1.6690063-0.2099609
	c0.6489868-0.1390381,1.3909912-0.2529907,2.2269897-0.3469849c4.0830078-0.5560303,6.1239929-1.7620239,6.1239929-3.6200562
	c0-1.3899536-0.7200012-2.2939453-2.1569824-2.7119751c-1.4389954-0.4179688-2.7620239-0.6270142-3.9670105-0.6270142
	c-1.3009949,0-2.4589844,0.1870117-3.4790039,0.5570068c-1.0220032,0.3710327-1.7649841,1.0670166-2.2259827,2.0889893h-9.3260193
	C220.9838867,42.427002,222.2838745,40.0579834,224.5118713,38.2030029 M258.3578796,38.4799805
	c-3.2950134,2.1360474-4.9410095,6.3580322-4.9410095,12.6669922v21.7140503h9.7430115V49.1989746
	c0-2.2279663,0.6489868-3.8499756,1.9490051-4.8719482c1.2969971-1.0200195,2.7839966-1.5310059,4.4539795-1.5310059
	c1.6700134,0,3.178009,0.5109863,4.5230103,1.5310059c1.3439941,1.0219727,2.019989,2.6439819,2.019989,4.8719482v18.9290161
	c0,1.3909912,0.4380188,2.5289917,1.3210144,3.4100342c0.8800049,0.8829956,2.0180054,1.322998,3.4089966,1.322998h4.8729858
	V51.1469727c0-6.492981-1.7189941-10.8079834-5.1499939-12.9439697c-3.4349976-2.1339722-7.1919861-3.2020264-11.2739868-3.2020264
	C265.2948608,35.1879883,261.6498718,36.3469849,258.3578796,38.4799805 M289.421875,24.9799805v40.9190063
	c0,4.2720337,1.7850037,6.5419922,5.3599854,6.8209839c3.5700073,0.2770386,6.8880005,0.3250122,9.9510193,0.1410522v-7.2369995
	h-2.9230042c-1.8580017,0-2.7839966-0.7890015-2.7839966-2.368042v-20.598999h0.973999
	c1.2990112,0,2.4119873-0.4389648,3.3399963-1.3219604c0.927002-0.8810425,1.3930054-2.0180054,1.3930054-3.4110107v-1.9470215
	h-5.7070007v-6.2639771c0-1.2990112-0.4660034-2.4119873-1.3919983-3.3410034
	c-0.928009-0.927002-1.9970093-1.3920288-3.1990051-1.3920288H289.421875z M316.099884,64.927002
	c0.8370056,0.742981,2.0419922,1.1129761,3.6199951,1.1129761c2.5960083,0,4.6369934-0.7409668,6.125-2.2269897
	c1.4819946-1.4819946,2.2269897-3.5239868,2.2269897-6.125v-3.4799805c-1.3009949,0.651001-3.1109924,1.2550049-5.4289856,1.8099976
	l-3.2010193,0.6970215c-1.67099,0.4649658-2.8769836,1.0669556-3.6199951,1.8099976
	c-0.6489868,1.0199585-0.9729919,2.0409546-0.9729919,3.0609741C314.848877,62.9790039,315.2658691,64.0900269,316.099884,64.927002
	 M310.6728821,38.2030029c2.5059814-2.1339722,6.0759888-3.2020264,10.7179871-3.2020264
	c5.1940002,0,9.0910034,0.8829956,11.6900024,2.6450195c2.6900024,1.8569946,4.0370178,4.4530029,4.0370178,7.7949829v12.6669922
	c0,3.7120361-0.6740112,6.6100464-2.0180054,8.6970215c-1.3470154,2.0880127-2.9460144,3.5960083-4.803009,4.5239868
	c-1.947998,1.0209961-4.0140076,1.6450195-6.1940002,1.8790283c-2.1799927,0.2310181-4.105011,0.3480225-5.7739868,0.3480225
	c-3.3420105,0-6.2640076-0.9060059-8.7690125-2.7140503c-2.5050049-1.80896-3.7579956-4.802002-3.7579956-8.9769897
	c0-3.8980103,1.1350098-6.6820068,3.4089966-8.3529663c2.2739868-1.6690063,5.1719971-2.7820435,8.697998-3.3390503
	c0.4660034,0,1.0220032-0.0709839,1.6730042-0.2099609c0.6470032-0.1390381,1.3890076-0.2529907,2.2259827-0.3469849
	c4.0820007-0.5560303,6.1240234-1.7620239,6.1240234-3.6200562c0-1.3899536-0.7200012-2.2939453-2.1570129-2.7119751
	c-1.4410095-0.4179688-2.7630005-0.6270142-3.9670105-0.6270142c-1.2999878,0-2.4589844,0.1870117-3.4789734,0.5570068
	c-1.0230103,0.3710327-1.7640076,1.0670166-2.2290039,2.0889893h-9.3240051
	C307.1448669,42.427002,308.4448853,40.0579834,310.6728821,38.2030029 M353.7748718,65.2739868
	c0.8309937,0.1560059,1.6140137,0.2340088,2.3479919,0.2340088c2.5400085,0,4.4960022-0.9349976,5.8640137-2.8070068
	c0.8359985-1.0230103,1.4379883-2.6220093,1.8099976-4.8029785c0.368988-2.1780396,0.3930054-4.3380127,0.0690002-6.4730225
	c-0.3250122-2.131958-1.0910034-4.0360107-2.2950134-5.7059937c-1.2079773-1.6710205-2.9719849-2.5050049-5.289978-2.5050049
	c-3.1549988,0-5.2870178,1.1610107-6.4030151,3.4769897c-1.1130066,2.3220215-1.6699829,4.9680176-1.6699829,7.9349976
	C348.2078857,61.0280151,350.0638733,64.5780029,353.7748718,65.2739868 M342.7108765,40.3610229
	c2.6430054-3.5720215,6.8880005-5.3600464,12.7349854-5.3600464c4.4530029,0,8.5800171,1.2080078,12.3870239,3.6199951
	c3.8059998,2.4140015,5.7059937,6.8690186,5.7059937,13.3610229v19.625c0,6.4940186-1.8999939,10.9240112-5.7059937,13.2919922
	c-3.8070068,2.3670044-7.934021,3.5480347-12.3870239,3.5480347c-8.5379944,0-13.8269958-3.9899902-15.8659973-11.9700317
	h10.1600037c0.7409973,1.2999878,1.8789978,2.2980347,3.4110107,2.9949951
	c1.5289917,0.6960449,3.0599976,0.8800049,4.5920105,0.5549927c1.5309753-0.3249512,2.9229736-1.230957,4.1749878-2.7129517
	c1.2529907-1.4860229,1.9710083-3.7120361,2.1560059-6.6820068v-2.3660278c-1.6690063,2.598999-3.9190063,4.2269897-6.75,4.8710327
	c-2.82901,0.6489868-5.6369934,0.4190063-8.4190063-0.6960449c-2.7850037-1.1119995-5.1740112-3.1759644-7.1700134-6.1929932
	c-1.9960022-3.0150146-2.9899902-6.9819946-2.9899902-11.8989868
	C338.744873,48.5969849,340.066864,43.934021,342.7108765,40.3610229 M387.4128723,45.0239868
	c-1.2999878,1.2990112-1.9960022,3.1550293-2.0879822,5.56604h14.197998c-0.1870117-2.5040283-0.835022-4.3610229-1.9490051-5.56604
	c-1.2059937-1.2979736-2.9219971-1.9489746-5.1499939-1.9489746
	C390.3828735,43.0750122,388.7118835,43.7260132,387.4128723,45.0239868 M379.7588806,40.151001
	c2.9679871-3.4299927,7.098999-5.1500244,12.3869934-5.1500244c5.5669861,0,9.8829956,1.6730347,12.9440002,5.0120239
	c2.9679871,3.4320068,4.4549866,8.2109985,4.4549866,14.3359985v1.5310059c0,0.4660034-0.0489807,0.7890015-0.1409912,0.9719849
	h-24.0789795c0.09198,2.8790283,0.7879944,5.0130005,2.0879822,6.4039917
	c1.2050171,1.4869995,3.0150146,2.2269897,5.4290161,2.2269897c1.5769958,0,2.9239807-0.3239746,4.0349731-0.9729614
	c0.2799988-0.09198,0.5350037-0.2550049,0.7669983-0.4869995c0.230011-0.2319946,0.48703-0.4880371,0.7660217-0.7670288
	c0.09198-0.2769775,0.4379883-0.6480103,1.0429993-1.1129761c0.6029968-0.4650269,1.4620056-0.6959839,2.5759888-0.6959839
	h6.9590149c-1.0230103,3.8969727-2.9710083,6.8670044-5.8460083,8.9069824
	c-2.8760071,2.1389771-6.4970093,3.2020264-10.8569946,3.2020264c-5.2890015,0-9.4190063-1.717041-12.3869934-5.1500244
	c-2.9710083-3.3400269-4.4530029-8.1170044-4.4530029-14.3359985
	C375.4448853,48.132019,376.8808899,43.4920044,379.7588806,40.151001"/>
<path class="st1" d="M147.5458679,11.09198v37.9570312c0,4.8259888-0.9429932,8.2949829-2.8239899,10.414978
	c-2.003006,2.118042-5.0050049,3.1749878-9.0019989,3.1749878c-4.125,0-7.125-1.0569458-9.0059967-3.1749878
	c-1.7650146-2.2349854-2.6480103-5.7089844-2.6480103-10.414978V11.09198h-6.3560028
	c-1.7649994,0-3.2639923,0.6790161-4.5,2.0300293c-1.2359924,1.3540039-1.8529968,2.9140015-1.8529968,4.6790161v32.6599731
	c0,7.5319824,2.1170044,13.2390137,6.3529968,17.1240234c3.8840027,3.8829956,9.8860016,5.8249512,18.0100098,5.8249512
	c8.1179962,0,14.1210022-1.9419556,18.0039978-5.8249512c4.2379913-3.8850098,6.3529968-9.592041,6.3529968-17.1240234V11.09198
	H147.5458679z"/>
<path class="st1" d="M89.5218811,11.2680054L65.8648682,36.1610107V11.2680054h-6.1779938
	c-1.7660065,0-3.2649994,0.6190186-4.5009918,1.8540039c-1.2360077,1.2359619-1.8560028,2.7359619-1.8560028,4.5020142v54.3739624
	h12.5349884V50.6359863c0-2.117981,1.1490021-3.5579834,3.4440002-4.3259888
	c2.2940063-0.7639771,4.7920074,0.6170044,7.503006,4.151001l15.3589935,21.5369873h15.1790009L80.872879,35.8079834
	l24.3600006-24.539978H89.5218811z"/>
<path class="st1" d="M6.9568787,14.2700195c-4.0010071,3.2959595-6,7.8269653-6,13.59198
	c0,3.2990112,0.586998,6.0040283,1.7639999,8.1199951c0.9429932,2.473999,2.5879974,4.3580322,4.9449997,5.6500244
	c1.9989929,1.4129639,6.0009995,2.7659912,12.0039978,4.0620117l1.4120026,0.3499756l0.3519974,0.1790161
	c10.5940018,2.3540039,15.8889999,5.414978,15.8889999,9.1799927c0,2.4699707-0.9440002,4.355957-2.8239975,5.6499634
	c-1.8850021,1.2940063-4.6529999,1.9400024-8.2970047,1.9400024c-4.1210022,0-7.3570023-0.8209839-9.711998-2.4699707
	c-2.2350006-1.4130249-3.5890045-3.8840332-4.0569992-7.4160156H0.0738754
	C0.4258728,59.815979,2.7798767,64.8779907,7.1358719,68.289978c4,3.4140015,10.003006,5.1199951,18.0060043,5.1199951
	c7.7669983,0,13.7689972-1.6469727,18.0079956-4.9449463c4.2369995-3.5310059,6.3549957-8.4710083,6.3549957-14.8280029
	c0-2.94104-0.6499939-5.6500244-1.943985-8.1210327c-1.2930145-2.2359619-3.1190033-4.05896-5.4710083-5.4729614
	c-1.6490021-0.7060547-3.2969971-1.4110107-4.9440002-2.1190186c-0.9429932-0.2340088-2.2050018-0.5549927-3.7949982-0.9700317
	c-1.5879974-0.4109497-3.4410019-0.9719849-5.5599976-1.677002c-0.9440002-0.1159668-2.4160004-0.46698-4.413002-1.0579834
	c-6.8280029-1.5299683-10.2399979-3.8829956-10.2399979-7.0629883c0-2.3519897,0.8829956-4.1749878,2.6489944-5.4719849
	c1.5279999-1.2940063,4.0590057-1.9429932,7.5910034-1.9429932c3.6459961,0,6.5319977,0.7689819,8.6500015,2.2959595
	c1.0589981,0.8240356,1.8809967,1.8259888,2.4710007,2.9990234c1.1749954,2.4749756,3.1149979,3.7080078,5.8249893,3.7080078
	h7.0630035c-0.2389984-5.8829956-2.3580017-10.6500244-6.3560028-14.2990112
	c-3.8849945-3.2930298-9.4179916-4.9420166-16.5929947-4.9420166C16.7858734,9.5029907,10.959877,11.09198,6.9568787,14.2700195"/>
<linearGradient id="SVGID_2_" gradientUnits="userSpaceOnUse" x1="78.4423752" y1="40.2609863" x2="78.4423752" y2="9.5018415">
	<stop  offset="0" style="stop-color:#FFFFFF;stop-opacity:0.3"/>
	<stop  offset="1" style="stop-color:#FFFFFF;stop-opacity:0.75"/>
</linearGradient>
<path class="st2" d="M90.0368805,12.4680176L64.6658783,39.1640015V12.4680176h-4.9790039
	c-1.4459991,0-2.6430054,0.4909668-3.654007,1.5019531c-1.0119934,1.0110474-1.5009918,2.2060547-1.5009918,3.6540527v23.1269531
	c9.2160034-0.3199463,18.4909973-0.6159668,27.822998-0.8839722l-3.0540009-4.177002l23.052002-23.2219849H90.0368805z"/>
<linearGradient id="SVGID_3_" gradientUnits="userSpaceOnUse" x1="21.2919025" y1="42.8606339" x2="26.9958344" y2="10.5120354">
	<stop  offset="0" style="stop-color:#FFFFFF;stop-opacity:0.3"/>
	<stop  offset="1" style="stop-color:#FFFFFF;stop-opacity:0.75"/>
</linearGradient>
<path class="st3" d="M24.1388779,10.7020264c-7.1959991,0.0409546-12.7220001,1.5569458-16.4169998,4.4939575
	c-3.7440033,3.0830078-5.5650024,7.2260132-5.5650024,12.6660156c0,3.0750122,0.5429993,5.6119995,1.6139984,7.5380249
	l0.0419998,0.0769653l0.0299988,0.0800171c0.8440018,2.2180176,2.2830048,3.8619995,4.3980026,5.0239868l0.0619965,0.03302
	l0.0530014,0.0390015c0.8440018,0.5939941,2.1279984,1.1879883,3.8010025,1.776001
	c9.7699966-0.4349976,19.6149979-0.8389893,29.5339966-1.2120361c-0.052002-0.0339966-0.0970001-0.0709839-0.1490021-0.1040039
	l-4.7789917-2.0479736c-0.9360046-0.2319946-2.1730042-0.5469971-3.7120056-0.9500122
	c-1.5680008-0.4069824-3.4280014-0.9660034-5.5289993-1.6619873c-1.022995-0.1409912-2.4899979-0.4949951-4.4069977-1.0640259
	c-7.5200043-1.68396-11.1760025-4.3779907-11.1760025-8.2329712c0-2.7420044,1.0559998-4.9089966,3.0719986-6.3889771
	c1.7690048-1.4970093,4.5070038-2.2250366,8.3670044-2.2250366c3.8839951,0,7.0289993,0.8469849,9.3850021,2.5480347
	c1.1929932,0.927002,2.1339951,2.072998,2.8179932,3.4329834c0.9790039,2.0620117,2.4889984,3.0230103,4.7420044,3.0230103
	h5.7850037c-0.451004-5.0140381-2.381012-9.0170288-5.8540039-12.1860352
	c-3.5939941-3.0499878-8.8239975-4.6159668-15.5429993-4.657959H24.1388779z"/>
<linearGradient id="SVGID_4_" gradientUnits="userSpaceOnUse" x1="153.671875" y1="38.7609863" x2="153.671875" y2="11.0064821">
	<stop  offset="0" style="stop-color:#FFFFFF;stop-opacity:0.3"/>
	<stop  offset="1" style="stop-color:#FFFFFF;stop-opacity:0.75"/>
</linearGradient>
<rect x="148.171875" y="11.901001" class="st4" width="11" height="27"/>
<linearGradient id="SVGID_5_" gradientUnits="userSpaceOnUse" x1="117.7108765" y1="38.7609863" x2="117.7108765" y2="11.0064821">
	<stop  offset="0" style="stop-color:#FFFFFF;stop-opacity:0.3"/>
	<stop  offset="1" style="stop-color:#FFFFFF;stop-opacity:0.75"/>
</linearGradient>
<path class="st5" d="M117.6148682,12.2910156c-1.3779907,0.0230103-2.5339966,0.5599976-3.5209961,1.6400146
	c-1.0350037,1.1339722-1.5379944,2.3999634-1.5379944,3.8689575v21.2940063
	c3.4290009-0.0759888,6.8679962-0.1489868,10.3099976-0.2189941V12.2910156H117.6148682z"/>
<linearGradient id="SVGID_6_" gradientUnits="userSpaceOnUse" x1="168.1499329" y1="76.3810654" x2="168.1499329" y2="78.6247177">
	<stop  offset="0" style="stop-color:#48474A"/>
	<stop  offset="1" style="stop-color:#1C1A16"/>
</linearGradient>
<rect x="0.193882" y="76.3810654" class="st6" width="335.9121094" height="2.243655"/>
<path class="st1" d="M4.7231445,90.9592285H2.465332v3.4453125c0,0.4921875-0.1162109,0.8662109-0.3486328,1.1201172
	c-0.2324219,0.2548828-0.5258789,0.3818359-0.8798828,0.3818359c-0.3706055,0-0.6694336-0.1259766-0.8964844-0.3769531
	C0.1132812,95.2775879,0,94.9074707,0,94.4211426v-9.3798828c0-0.5429688,0.1245117-0.9296875,0.3735352-1.1621094
	s0.6445312-0.3486328,1.1870117-0.3486328h3.1625977c0.9350586,0,1.6547852,0.0712891,2.1582031,0.2158203
	c0.4980469,0.1376953,0.9282227,0.3681641,1.2905273,0.6884766c0.362793,0.3212891,0.6381836,0.7138672,0.8261719,1.1787109
	s0.2822266,0.9882812,0.2822266,1.5693359c0,1.2392578-0.3818359,2.1787109-1.1455078,2.8183594
	C7.3710938,90.6398926,6.2338867,90.9592285,4.7231445,90.9592285z M4.1254883,85.3811035H2.465332v3.71875h1.6601562
	c0.5810547,0,1.0668945-0.0605469,1.456543-0.1826172c0.390625-0.1210938,0.6879883-0.3203125,0.8925781-0.5976562
	c0.2045898-0.2763672,0.3071289-0.6386719,0.3071289-1.0869141c0-0.5371094-0.1577148-0.9746094-0.4731445-1.3115234
	C5.9545898,85.560791,5.2265625,85.3811035,4.1254883,85.3811035z"/>
<path class="st1" d="M16.8608398,90.4943848h-0.8632812v3.9101562c0,0.5146484-0.1132812,0.8935547-0.340332,1.1367188
	c-0.2270508,0.2441406-0.5229492,0.3652344-0.8881836,0.3652344c-0.3930664,0-0.6972656-0.1269531-0.9130859-0.3818359
	c-0.2158203-0.2539062-0.3237305-0.6279297-0.3237305-1.1201172v-9.3632812c0-0.53125,0.1191406-0.9160156,0.3569336-1.1542969
	c0.237793-0.2373047,0.6225586-0.3564453,1.1538086-0.3564453h4.0092773c0.5532227,0,1.0263672,0.0234375,1.4194336,0.0703125
	s0.7470703,0.1425781,1.0625,0.2861328c0.3818359,0.1611328,0.7192383,0.390625,1.0126953,0.6894531
	s0.5161133,0.6455078,0.6679688,1.0419922c0.1523438,0.3955078,0.2285156,0.8144531,0.2285156,1.2568359
	c0,0.9082031-0.2558594,1.6328125-0.7675781,2.1748047c-0.512207,0.5429688-1.2880859,0.9267578-2.3286133,1.1542969
	c0.4370117,0.2324219,0.8549805,0.5751953,1.253418,1.0292969c0.3984375,0.453125,0.7539062,0.9365234,1.0664062,1.4482422
	c0.3129883,0.5117188,0.5566406,0.9736328,0.7304688,1.3867188c0.1748047,0.4121094,0.2617188,0.6953125,0.2617188,0.8505859
	c0,0.1601562-0.0512695,0.3193359-0.1533203,0.4775391c-0.1025391,0.1572266-0.2421875,0.2822266-0.4194336,0.3730469
	c-0.1772461,0.0917969-0.3818359,0.1367188-0.6142578,0.1367188c-0.2768555,0-0.5092773-0.0644531-0.6972656-0.1943359
	c-0.1879883-0.1308594-0.3500977-0.2949219-0.4858398-0.4941406c-0.1352539-0.1992188-0.3193359-0.4931641-0.5517578-0.8798828
	l-0.987793-1.6435547c-0.3540039-0.6035156-0.6708984-1.0625-0.9506836-1.3779297
	c-0.2792969-0.3154297-0.5629883-0.53125-0.8505859-0.6474609S17.2978516,90.4943848,16.8608398,90.4943848z M18.2719727,85.3811035
	h-2.2744141v3.3457031h2.2080078c0.5922852,0,1.090332-0.0517578,1.4941406-0.1533203
	c0.4038086-0.1025391,0.7124023-0.2773438,0.925293-0.5234375c0.2133789-0.2460938,0.3198242-0.5849609,0.3198242-1.0166016
	c0-0.3378906-0.0859375-0.6347656-0.2573242-0.8925781c-0.1713867-0.2568359-0.409668-0.4492188-0.7138672-0.5771484
	C19.6860352,85.442627,19.1186523,85.3811035,18.2719727,85.3811035z"/>
<path class="st1" d="M33.3398438,83.3225098c1.2617188,0,2.3452148,0.2558594,3.2495117,0.7685547
	c0.9052734,0.5117188,1.5898438,1.2392578,2.0546875,2.1826172s0.6972656,2.0517578,0.6972656,3.3242188
	c0,0.9414062-0.1274414,1.7958984-0.3818359,2.5654297c-0.2543945,0.7685547-0.6362305,1.4355469-1.1455078,2
	s-1.1342773,0.9960938-1.8759766,1.2949219s-1.5908203,0.4482422-2.5483398,0.4482422
	c-0.9516602,0-1.8041992-0.1533203-2.5566406-0.4599609c-0.7524414-0.3076172-1.3808594-0.7402344-1.8842773-1.2998047
	c-0.503418-0.5585938-0.8837891-1.2314453-1.1416016-2.0166016c-0.2568359-0.7861328-0.3857422-1.6357422-0.3857422-2.5488281
	c0-0.9345703,0.1342773-1.7929688,0.4023438-2.5732422c0.2685547-0.7802734,0.6572266-1.4443359,1.1665039-1.9921875
	s1.1289062-0.9667969,1.859375-1.2568359C31.5800781,83.4680176,32.4101562,83.3225098,33.3398438,83.3225098z
	 M36.8427734,89.5812988c0-0.890625-0.144043-1.6630859-0.4316406-2.3154297
	c-0.2875977-0.6533203-0.6987305-1.1474609-1.2329102-1.4814453c-0.5336914-0.3349609-1.1464844-0.5029297-1.8383789-0.5029297
	c-0.4926758,0-0.9477539,0.0927734-1.3657227,0.2783203c-0.4174805,0.1855469-0.7773438,0.4550781-1.0791016,0.8095703
	c-0.3012695,0.3535156-0.5390625,0.8066406-0.7138672,1.3574219c-0.1738281,0.5498047-0.2612305,1.1689453-0.2612305,1.8544922
	c0,0.6923828,0.0874023,1.3173828,0.2612305,1.8759766c0.1748047,0.5595703,0.4208984,1.0224609,0.7392578,1.390625
	c0.3178711,0.3681641,0.6831055,0.6435547,1.0957031,0.8261719c0.4121094,0.1826172,0.8642578,0.2734375,1.3569336,0.2734375
	c0.6308594,0,1.2104492-0.1572266,1.7387695-0.4726562c0.5288086-0.3154297,0.9492188-0.8027344,1.2617188-1.4609375
	C36.6865234,91.3547363,36.8427734,90.5441895,36.8427734,89.5812988z"/>
<path class="st1" d="M45.1870117,83.5305176h3.2124023c0.8354492,0,1.5522461,0.0771484,2.1499023,0.2324219
	c0.5976562,0.1542969,1.1401367,0.4453125,1.6269531,0.8710938c1.2670898,1.0849609,1.9008789,2.734375,1.9008789,4.9472656
	c0,0.7304688-0.0634766,1.3974609-0.190918,2.0009766c-0.1274414,0.6025391-0.3237305,1.1464844-0.5893555,1.6308594
	s-0.605957,0.9169922-1.0209961,1.2988281c-0.3266602,0.2939453-0.6835938,0.5283203-1.0708008,0.7060547
	c-0.387207,0.1767578-0.8037109,0.3017578-1.2495117,0.3730469c-0.4453125,0.0722656-0.9472656,0.1083984-1.5063477,0.1083984
	h-3.2124023c-0.4482422,0-0.7856445-0.0683594-1.0126953-0.203125c-0.2270508-0.1357422-0.375-0.3271484-0.4443359-0.5732422
	c-0.0688477-0.2460938-0.1035156-0.5654297-0.1035156-0.9589844v-8.9228516c0-0.53125,0.1191406-0.9160156,0.3569336-1.1542969
	C44.2709961,83.6496582,44.6557617,83.5305176,45.1870117,83.5305176z M46.1416016,85.4807129v8.2597656h1.8676758
	c0.409668,0,0.7304688-0.0117188,0.9628906-0.0332031c0.2324219-0.0224609,0.4731445-0.078125,0.722168-0.1660156
	c0.2490234-0.0888672,0.4648438-0.2128906,0.6474609-0.3740234c0.824707-0.6972656,1.2368164-1.8974609,1.2368164-3.6025391
	c0-1.2001953-0.1811523-2.0996094-0.5439453-2.6972656c-0.3623047-0.5976562-0.809082-0.9785156-1.340332-1.1416016
	s-1.1733398-0.2451172-1.9257812-0.2451172H46.1416016z"/>
<path class="st1" d="M58.4702148,90.6691895v-5.8525391c0-0.4980469,0.1123047-0.8710938,0.3359375-1.1201172
	c0.2246094-0.2490234,0.519043-0.3740234,0.8842773-0.3740234c0.3818359,0,0.6850586,0.125,0.9086914,0.3740234
	c0.2246094,0.2490234,0.3364258,0.6220703,0.3364258,1.1201172v5.9853516c0,0.6806641,0.0761719,1.2490234,0.2280273,1.7060547
	c0.1523438,0.4560547,0.4223633,0.8105469,0.8095703,1.0625c0.387207,0.2509766,0.9296875,0.3769531,1.6269531,0.3769531
	c0.9628906,0,1.6435547-0.2558594,2.0419922-0.7675781s0.5976562-1.2880859,0.5976562-2.328125v-6.0351562
	c0-0.5029297,0.1108398-0.8779297,0.3320312-1.1240234c0.2211914-0.2470703,0.5175781-0.3701172,0.8881836-0.3701172
	s0.6708984,0.1230469,0.9008789,0.3701172c0.2294922,0.2460938,0.3442383,0.6210938,0.3442383,1.1240234v5.8525391
	c0,0.9511719-0.0927734,1.7460938-0.277832,2.3818359c-0.1855469,0.6367188-0.5356445,1.1953125-1.050293,1.6767578
	c-0.4428711,0.4101562-0.9575195,0.7089844-1.5439453,0.8964844c-0.5864258,0.1884766-1.2729492,0.2822266-2.0585938,0.2822266
	c-0.9350586,0-1.7402344-0.1005859-2.4155273-0.3027344s-1.2255859-0.5146484-1.6518555-0.9375
	c-0.4262695-0.4238281-0.7387695-0.9658203-0.9379883-1.6269531C58.5698242,92.3771973,58.4702148,91.5871582,58.4702148,90.6691895
	z"/>
<path class="st1" d="M83.9472656,91.8557129c0,0.3876953-0.0952148,0.8066406-0.2866211,1.2578125
	c-0.1904297,0.4511719-0.4907227,0.8935547-0.9003906,1.328125s-0.9326172,0.7871094-1.5688477,1.0585938
	c-0.6362305,0.2705078-1.3779297,0.40625-2.2246094,0.40625c-0.6420898,0-1.2255859-0.0605469-1.7514648-0.1826172
	c-0.5258789-0.1210938-1.0029297-0.3105469-1.4316406-0.5683594c-0.4291992-0.2568359-0.8232422-0.5966797-1.1831055-1.0166016
	c-0.3208008-0.3818359-0.5947266-0.8095703-0.8217773-1.2822266c-0.2270508-0.4736328-0.3969727-0.9785156-0.5107422-1.515625
	c-0.1132812-0.5361328-0.1699219-1.1064453-0.1699219-1.7099609c0-0.9794922,0.1425781-1.8564453,0.4277344-2.6308594
	c0.284668-0.7753906,0.6928711-1.4375,1.2241211-1.9882812s1.1538086-0.9697266,1.8676758-1.2578125
	c0.7138672-0.2871094,1.4746094-0.4316406,2.2827148-0.4316406c0.9848633,0,1.8623047,0.1962891,2.6313477,0.5898438
	c0.769043,0.3925781,1.3583984,0.8779297,1.7680664,1.4570312c0.409668,0.578125,0.6142578,1.1240234,0.6142578,1.6386719
	c0,0.2822266-0.0996094,0.53125-0.2988281,0.7470703s-0.4399414,0.3242188-0.722168,0.3242188
	c-0.3154297,0-0.5517578-0.0751953-0.7099609-0.2246094c-0.1572266-0.1494141-0.3330078-0.40625-0.5268555-0.7714844
	c-0.3208008-0.6035156-0.6987305-1.0546875-1.1333008-1.3535156c-0.434082-0.2988281-0.9697266-0.4482422-1.605957-0.4482422
	c-1.0126953,0-1.8193359,0.3847656-2.4194336,1.1542969c-0.6005859,0.7685547-0.9008789,1.8623047-0.9008789,3.2783203
	c0,0.9462891,0.1328125,1.7333984,0.3984375,2.3623047c0.265625,0.6279297,0.6420898,1.0966797,1.1289062,1.40625
	c0.4868164,0.3105469,1.0571289,0.4648438,1.7099609,0.4648438c0.7084961,0,1.3071289-0.1757812,1.7973633-0.5263672
	c0.4892578-0.3515625,0.8588867-0.8681641,1.1079102-1.5488281c0.1049805-0.3203125,0.2353516-0.5820312,0.3901367-0.7841797
	s0.4038086-0.3027344,0.7470703-0.3027344c0.293457,0,0.5449219,0.1025391,0.7553711,0.3066406
	C83.8422852,91.2971191,83.9472656,91.552002,83.9472656,91.8557129z"/>
<path class="st1" d="M96.2758789,85.5637207h-2.6894531v8.8408203c0,0.5087891-0.1132812,0.8867188-0.340332,1.1328125
	s-0.5200195,0.3691406-0.8798828,0.3691406c-0.3652344,0-0.6625977-0.1240234-0.8920898-0.3730469
	c-0.2299805-0.2490234-0.3447266-0.6259766-0.3447266-1.1289062v-8.8408203h-2.6894531
	c-0.4204102,0-0.7333984-0.0927734-0.9379883-0.2773438c-0.2045898-0.1855469-0.3071289-0.4306641-0.3071289-0.7353516
	c0-0.3154297,0.1064453-0.5644531,0.3193359-0.7470703c0.2133789-0.1826172,0.5219727-0.2734375,0.9257812-0.2734375h7.8359375
	c0.4262695,0,0.7431641,0.09375,0.9501953,0.2822266c0.2080078,0.1875,0.3115234,0.4345703,0.3115234,0.7382812
	c0,0.3046875-0.1049805,0.5498047-0.3154297,0.7353516C97.0117188,85.4709473,96.6962891,85.5637207,96.2758789,85.5637207z"/>
<path class="st1" d="M107.7685547,94.404541v-9.5878906c0-0.4980469,0.1132812-0.8710938,0.340332-1.1201172
	s0.5200195-0.3740234,0.8798828-0.3740234c0.3706055,0,0.6708984,0.1230469,0.9008789,0.3701172
	c0.2294922,0.2460938,0.3442383,0.6210938,0.3442383,1.1240234v9.5878906c0,0.5029297-0.1147461,0.8798828-0.3442383,1.1289062
	c-0.2299805,0.2490234-0.5302734,0.3730469-0.9008789,0.3730469c-0.3540039,0-0.6459961-0.1259766-0.8754883-0.3769531
	C107.8833008,95.2775879,107.7685547,94.9025879,107.7685547,94.404541z"/>
<path class="st1" d="M118.4121094,84.8000488l4.7397461,7.171875v-7.2382812c0-0.4697266,0.1010742-0.8232422,0.3027344-1.0576172
	c0.2021484-0.2353516,0.4746094-0.3535156,0.8178711-0.3535156c0.3540039,0,0.6337891,0.1181641,0.8383789,0.3535156
	c0.2045898,0.234375,0.3071289,0.5878906,0.3071289,1.0576172v9.5712891c0,1.0673828-0.4428711,1.6015625-1.328125,1.6015625
	c-0.2211914,0-0.4204102-0.03125-0.5976562-0.0947266c-0.1772461-0.0644531-0.3432617-0.1650391-0.4980469-0.3037109
	c-0.1547852-0.1376953-0.2988281-0.2998047-0.4316406-0.4853516s-0.265625-0.375-0.3984375-0.5683594l-4.6235352-7.0888672
	v7.1298828c0,0.4648438-0.1079102,0.8164062-0.3237305,1.0546875c-0.2158203,0.2373047-0.4926758,0.3564453-0.8300781,0.3564453
	c-0.3486328,0-0.6279297-0.1201172-0.8383789-0.3603516c-0.2104492-0.2412109-0.3154297-0.5908203-0.3154297-1.0507812V85.107666
	c0-0.3984375,0.0444336-0.7109375,0.1328125-0.9384766c0.1049805-0.2490234,0.2792969-0.4521484,0.5229492-0.609375
	c0.2436523-0.1582031,0.5063477-0.2373047,0.7885742-0.2373047c0.2211914,0,0.4111328,0.0361328,0.5683594,0.1083984
	c0.1582031,0.0712891,0.2963867,0.1689453,0.4150391,0.2900391c0.1191406,0.1220703,0.2412109,0.2792969,0.3652344,0.4736328
	C118.1508789,84.3879395,118.2792969,84.5900879,118.4121094,84.8000488z"/>
<path class="st1" d="M138.2275391,85.5637207h-2.6894531v8.8408203c0,0.5087891-0.1132812,0.8867188-0.3398438,1.1328125
	s-0.5195312,0.3691406-0.8808594,0.3691406c-0.3642578,0-0.6621094-0.1240234-0.8911133-0.3730469
	c-0.2299805-0.2490234-0.3447266-0.6259766-0.3447266-1.1289062v-8.8408203h-2.6894531
	c-0.4204102,0-0.7333984-0.0927734-0.9379883-0.2773438c-0.2045898-0.1855469-0.3071289-0.4306641-0.3071289-0.7353516
	c0-0.3154297,0.1064453-0.5644531,0.3193359-0.7470703c0.2133789-0.1826172,0.5219727-0.2734375,0.9257812-0.2734375h7.8354492
	c0.4257812,0,0.7441406,0.09375,0.9511719,0.2822266c0.2070312,0.1875,0.3105469,0.4345703,0.3105469,0.7382812
	c0,0.3046875-0.1054688,0.5498047-0.3144531,0.7353516C138.9638672,85.4709473,138.6494141,85.5637207,138.2275391,85.5637207z"/>
<path class="st1" d="M151.1787109,85.4309082H145.625v2.9882812h5.1132812c0.3769531,0,0.6572266,0.0849609,0.8427734,0.2539062
	c0.1855469,0.1679688,0.2783203,0.390625,0.2783203,0.6679688c0,0.2763672-0.0917969,0.5019531-0.2734375,0.6767578
	c-0.1835938,0.1738281-0.4648438,0.2607422-0.8476562,0.2607422H145.625v3.4619141h5.7441406
	c0.3876953,0,0.6796875,0.0898438,0.8759766,0.2695312s0.2949219,0.4189453,0.2949219,0.7177734
	c0,0.2880859-0.0986328,0.5214844-0.2949219,0.7021484c-0.1962891,0.1796875-0.4882812,0.2695312-0.8759766,0.2695312h-6.6982422
	c-0.5371094,0-0.9228516-0.1191406-1.1582031-0.3574219c-0.2353516-0.2373047-0.3525391-0.6220703-0.3525391-1.1533203v-9.1474609
	c0-0.3544922,0.0527344-0.6435547,0.1582031-0.8671875c0.1044922-0.2246094,0.2695312-0.3876953,0.4931641-0.4902344
	c0.2246094-0.1025391,0.5107422-0.1533203,0.859375-0.1533203h6.5078125c0.3925781,0,0.6845703,0.0869141,0.8759766,0.2617188
	c0.1904297,0.1738281,0.2861328,0.4023438,0.2861328,0.6845703c0,0.2871094-0.0957031,0.5185547-0.2861328,0.6933594
	C151.8632812,85.3439941,151.5712891,85.4309082,151.1787109,85.4309082z"/>
<path class="st1" d="M167.8242188,90.7521973v2.3320312c0,0.3105469-0.03125,0.5576172-0.0917969,0.7431641
	s-0.1728516,0.3525391-0.3359375,0.5019531s-0.3720703,0.2939453-0.6269531,0.4316406
	c-0.7363281,0.3984375-1.4443359,0.6894531-2.125,0.8720703s-1.421875,0.2734375-2.2246094,0.2734375
	c-0.9355469,0-1.7871094-0.1435547-2.5566406-0.4316406c-0.7695312-0.2871094-1.4248047-0.7050781-1.9667969-1.2529297
	c-0.5429688-0.5478516-0.9589844-1.2119141-1.25-1.9921875c-0.2900391-0.7802734-0.4355469-1.6523438-0.4355469-2.6152344
	c0-0.9462891,0.140625-1.8125,0.4238281-2.5976562c0.28125-0.7861328,0.6972656-1.453125,1.2441406-2.0009766
	c0.5488281-0.5478516,1.2148438-0.9667969,2.0009766-1.2568359c0.7861328-0.2910156,1.6767578-0.4365234,2.6728516-0.4365234
	c0.8193359,0,1.5439453,0.109375,2.1748047,0.328125s1.1425781,0.4941406,1.5361328,0.8261719
	c0.3925781,0.3320312,0.6884766,0.6835938,0.8876953,1.0537109c0.1992188,0.3710938,0.2988281,0.7001953,0.2988281,0.9882812
	c0,0.3095703-0.1152344,0.5742188-0.3447266,0.7929688c-0.2294922,0.2177734-0.5048828,0.3271484-0.8261719,0.3271484
	c-0.1767578,0-0.3466797-0.0410156-0.5097656-0.1240234s-0.3007812-0.1992188-0.4111328-0.3486328
	c-0.3046875-0.4765625-0.5615234-0.8359375-0.7724609-1.0791016c-0.2099609-0.2441406-0.4931641-0.4482422-0.8505859-0.6142578
	c-0.3564453-0.1660156-0.8115234-0.2490234-1.3652344-0.2490234c-0.5703125,0-1.0791016,0.0976562-1.5273438,0.2949219
	c-0.4482422,0.1962891-0.8310547,0.4814453-1.1494141,0.8544922c-0.3183594,0.3740234-0.5615234,0.8310547-0.7304688,1.3740234
	c-0.1689453,0.5419922-0.2539062,1.1425781-0.2539062,1.8007812c0,1.4277344,0.328125,2.5263672,0.984375,3.2958984
	c0.6552734,0.7685547,1.5703125,1.1533203,2.7431641,1.1533203c0.5703125,0,1.1054688-0.0742188,1.6064453-0.2236328
	s1.0078125-0.3623047,1.5234375-0.6396484v-1.9755859H163.65625c-0.4589844,0-0.8056641-0.0693359-1.0410156-0.2070312
	c-0.2353516-0.1386719-0.3535156-0.3740234-0.3535156-0.7060547c0-0.2705078,0.0986328-0.4951172,0.2949219-0.671875
	c0.1962891-0.1777344,0.4638672-0.265625,0.8007812-0.265625h2.7978516c0.3427734,0,0.6337891,0.0302734,0.8720703,0.0908203
	c0.2373047,0.0615234,0.4296875,0.1962891,0.5761719,0.4072266C167.75,90.0158691,167.8242188,90.3312988,167.8242188,90.7521973z"
	/>
<path class="st1" d="M175.6962891,90.4943848h-0.8632812v3.9101562c0,0.5146484-0.1142578,0.8935547-0.3408203,1.1367188
	c-0.2265625,0.2441406-0.5224609,0.3652344-0.8876953,0.3652344c-0.3935547,0-0.6972656-0.1269531-0.9140625-0.3818359
	c-0.2148438-0.2539062-0.3232422-0.6279297-0.3232422-1.1201172v-9.3632812c0-0.53125,0.1191406-0.9160156,0.3564453-1.1542969
	c0.2382812-0.2373047,0.6230469-0.3564453,1.1542969-0.3564453h4.0097656c0.5527344,0,1.0263672,0.0234375,1.4189453,0.0703125
	s0.7470703,0.1425781,1.0625,0.2861328c0.3818359,0.1611328,0.7197266,0.390625,1.0126953,0.6894531
	s0.515625,0.6455078,0.6679688,1.0419922c0.1523438,0.3955078,0.2285156,0.8144531,0.2285156,1.2568359
	c0,0.9082031-0.2558594,1.6328125-0.7675781,2.1748047c-0.5117188,0.5429688-1.2880859,0.9267578-2.328125,1.1542969
	c0.4365234,0.2324219,0.8544922,0.5751953,1.2529297,1.0292969c0.3984375,0.453125,0.7539062,0.9365234,1.0664062,1.4482422
	s0.5566406,0.9736328,0.7304688,1.3867188c0.1748047,0.4121094,0.2617188,0.6953125,0.2617188,0.8505859
	c0,0.1601562-0.0507812,0.3193359-0.1533203,0.4775391c-0.1025391,0.1572266-0.2421875,0.2822266-0.4199219,0.3730469
	c-0.1767578,0.0917969-0.3808594,0.1367188-0.6132812,0.1367188c-0.2773438,0-0.5097656-0.0644531-0.6972656-0.1943359
	c-0.1884766-0.1308594-0.3505859-0.2949219-0.4863281-0.4941406s-0.3193359-0.4931641-0.5517578-0.8798828l-0.9873047-1.6435547
	c-0.3544922-0.6035156-0.671875-1.0625-0.9511719-1.3779297s-0.5625-0.53125-0.8505859-0.6474609
	S176.1328125,90.4943848,175.6962891,90.4943848z M177.1064453,85.3811035h-2.2734375v3.3457031h2.2070312
	c0.5927734,0,1.0908203-0.0517578,1.4941406-0.1533203c0.4042969-0.1025391,0.7128906-0.2773438,0.9257812-0.5234375
	s0.3203125-0.5849609,0.3203125-1.0166016c0-0.3378906-0.0859375-0.6347656-0.2578125-0.8925781
	c-0.171875-0.2568359-0.4091797-0.4492188-0.7138672-0.5771484
	C178.5205078,85.442627,177.9541016,85.3811035,177.1064453,85.3811035z"/>
<path class="st1" d="M194.6064453,94.3215332l-0.5810547-1.5273438h-4.9472656l-0.5810547,1.5605469
	c-0.2265625,0.6083984-0.4208984,1.0195312-0.5810547,1.2324219s-0.4238281,0.3193359-0.7890625,0.3193359
	c-0.3095703,0-0.5830078-0.1132812-0.8212891-0.3398438c-0.2382812-0.2275391-0.3564453-0.484375-0.3564453-0.7724609
	c0-0.1660156,0.0273438-0.3369141,0.0820312-0.5146484c0.0556641-0.1767578,0.1474609-0.4228516,0.2744141-0.7382812
	l3.1123047-7.9023438c0.0888672-0.2275391,0.1953125-0.5,0.3203125-0.8173828
	c0.1240234-0.3183594,0.2568359-0.5830078,0.3984375-0.7929688c0.140625-0.2109375,0.3261719-0.3808594,0.5556641-0.5107422
	s0.5136719-0.1953125,0.8505859-0.1953125c0.34375,0,0.6298828,0.0654297,0.859375,0.1953125
	s0.4150391,0.2978516,0.5566406,0.5019531c0.140625,0.2050781,0.2597656,0.4248047,0.3564453,0.6601562
	s0.2197266,0.5488281,0.3701172,0.9423828l3.1787109,7.8525391c0.2490234,0.5976562,0.3740234,1.0322266,0.3740234,1.3027344
	c0,0.2822266-0.1181641,0.5410156-0.3535156,0.7763672s-0.5185547,0.3525391-0.8505859,0.3525391
	c-0.1933594,0-0.359375-0.0341797-0.4980469-0.1035156S195.28125,95.6398926,195.1875,95.520752
	s-0.1953125-0.3017578-0.3027344-0.5478516C194.7763672,94.7268066,194.6835938,94.5090332,194.6064453,94.3215332z
	 M189.7255859,90.942627h3.6357422l-1.8339844-5.0214844L189.7255859,90.942627z"/>
<path class="st1" d="M207.6660156,85.5637207h-2.6894531v8.8408203c0,0.5087891-0.1132812,0.8867188-0.3398438,1.1328125
	c-0.2275391,0.2460938-0.5205078,0.3691406-0.8808594,0.3691406c-0.3652344,0-0.6621094-0.1240234-0.8916016-0.3730469
	s-0.3447266-0.6259766-0.3447266-1.1289062v-8.8408203h-2.6894531c-0.4208984,0-0.7333984-0.0927734-0.9375-0.2773438
	c-0.2050781-0.1855469-0.3076172-0.4306641-0.3076172-0.7353516c0-0.3154297,0.1064453-0.5644531,0.3193359-0.7470703
	s0.5214844-0.2734375,0.9257812-0.2734375h7.8359375c0.4257812,0,0.7431641,0.09375,0.9501953,0.2822266
	c0.2080078,0.1875,0.3115234,0.4345703,0.3115234,0.7382812c0,0.3046875-0.1054688,0.5498047-0.3154297,0.7353516
	C208.4023438,85.4709473,208.0869141,85.5637207,207.6660156,85.5637207z"/>
<path class="st1" d="M212.6982422,94.404541v-9.5878906c0-0.4980469,0.1132812-0.8710938,0.3398438-1.1201172
	c0.2275391-0.2490234,0.5205078-0.3740234,0.8808594-0.3740234c0.3701172,0,0.6708984,0.1230469,0.9003906,0.3701172
	c0.2294922,0.2460938,0.34375,0.6210938,0.34375,1.1240234v9.5878906c0,0.5029297-0.1142578,0.8798828-0.34375,1.1289062
	s-0.5302734,0.3730469-0.9003906,0.3730469c-0.3544922,0-0.6464844-0.1259766-0.8759766-0.3769531
	C212.8134766,95.2775879,212.6982422,94.9025879,212.6982422,94.404541z"/>
<path class="st1" d="M225.4824219,83.3225098c1.2617188,0,2.3457031,0.2558594,3.25,0.7685547
	c0.9052734,0.5117188,1.5898438,1.2392578,2.0546875,2.1826172s0.6972656,2.0517578,0.6972656,3.3242188
	c0,0.9414062-0.1269531,1.7958984-0.3818359,2.5654297c-0.2548828,0.7685547-0.6367188,1.4355469-1.1455078,2
	s-1.1347656,0.9960938-1.8759766,1.2949219s-1.5908203,0.4482422-2.5478516,0.4482422
	c-0.9521484,0-1.8046875-0.1533203-2.5566406-0.4599609c-0.7529297-0.3076172-1.3808594-0.7402344-1.8847656-1.2998047
	c-0.5039062-0.5585938-0.8837891-1.2314453-1.1416016-2.0166016c-0.2568359-0.7861328-0.3857422-1.6357422-0.3857422-2.5488281
	c0-0.9345703,0.1337891-1.7929688,0.4023438-2.5732422s0.6572266-1.4443359,1.1660156-1.9921875
	c0.5097656-0.5478516,1.1289062-0.9667969,1.859375-1.2568359
	C223.7226562,83.4680176,224.5527344,83.3225098,225.4824219,83.3225098z M228.9863281,89.5812988
	c0-0.890625-0.1445312-1.6630859-0.4316406-2.3154297c-0.2880859-0.6533203-0.6992188-1.1474609-1.2333984-1.4814453
	c-0.5341797-0.3349609-1.1464844-0.5029297-1.8388672-0.5029297c-0.4921875,0-0.9472656,0.0927734-1.3652344,0.2783203
	s-0.7773438,0.4550781-1.0791016,0.8095703c-0.3017578,0.3535156-0.5390625,0.8066406-0.7138672,1.3574219
	c-0.1738281,0.5498047-0.2617188,1.1689453-0.2617188,1.8544922c0,0.6923828,0.0878906,1.3173828,0.2617188,1.8759766
	c0.1748047,0.5595703,0.4208984,1.0224609,0.7392578,1.390625s0.6835938,0.6435547,1.0957031,0.8261719
	s0.8642578,0.2734375,1.3564453,0.2734375c0.6308594,0,1.2109375-0.1572266,1.7392578-0.4726562
	s0.9492188-0.8027344,1.2617188-1.4609375C228.8291016,91.3547363,228.9863281,90.5441895,228.9863281,89.5812988z"/>
<path class="st1" d="M239.015625,84.8000488l4.7392578,7.171875v-7.2382812c0-0.4697266,0.1005859-0.8232422,0.3027344-1.0576172
	c0.2021484-0.2353516,0.4746094-0.3535156,0.8173828-0.3535156c0.3544922,0,0.6337891,0.1181641,0.8388672,0.3535156
	c0.2050781,0.234375,0.3076172,0.5878906,0.3076172,1.0576172v9.5712891c0,1.0673828-0.4433594,1.6015625-1.328125,1.6015625
	c-0.2216797,0-0.4208984-0.03125-0.5976562-0.0947266c-0.1777344-0.0644531-0.34375-0.1650391-0.4980469-0.3037109
	c-0.1552734-0.1376953-0.2988281-0.2998047-0.4316406-0.4853516s-0.265625-0.375-0.3984375-0.5683594l-4.6240234-7.0888672
	v7.1298828c0,0.4648438-0.1083984,0.8164062-0.3232422,1.0546875c-0.2167969,0.2373047-0.4931641,0.3564453-0.8300781,0.3564453
	c-0.3496094,0-0.6289062-0.1201172-0.8388672-0.3603516c-0.2099609-0.2412109-0.3154297-0.5908203-0.3154297-1.0507812V85.107666
	c0-0.3984375,0.0439453-0.7109375,0.1328125-0.9384766c0.1054688-0.2490234,0.2792969-0.4521484,0.5234375-0.609375
	c0.2431641-0.1582031,0.5058594-0.2373047,0.7880859-0.2373047c0.2216797,0,0.4111328,0.0361328,0.5683594,0.1083984
	c0.1582031,0.0712891,0.2958984,0.1689453,0.4150391,0.2900391c0.1191406,0.1220703,0.2412109,0.2792969,0.3652344,0.4736328
	C238.7539062,84.3879395,238.8828125,84.5900879,239.015625,84.8000488z"/>
<path class="st1" d="M262.1113281,90.9592285h-2.2578125v3.4453125c0,0.4921875-0.1152344,0.8662109-0.3476562,1.1201172
	c-0.2324219,0.2548828-0.5263672,0.3818359-0.8808594,0.3818359c-0.3701172,0-0.6689453-0.1259766-0.8964844-0.3769531
	c-0.2265625-0.2519531-0.3398438-0.6220703-0.3398438-1.1083984v-9.3798828c0-0.5429688,0.125-0.9296875,0.3730469-1.1621094
	c0.25-0.2324219,0.6455078-0.3486328,1.1875-0.3486328h3.1621094c0.9355469,0,1.6552734,0.0712891,2.1582031,0.2158203
	c0.4980469,0.1376953,0.9287109,0.3681641,1.2910156,0.6884766c0.3623047,0.3212891,0.6376953,0.7138672,0.8261719,1.1787109
	s0.2822266,0.9882812,0.2822266,1.5693359c0,1.2392578-0.3818359,2.1787109-1.1455078,2.8183594
	C264.7597656,90.6398926,263.6230469,90.9592285,262.1113281,90.9592285z M261.5136719,85.3811035h-1.6601562v3.71875h1.6601562
	c0.5820312,0,1.0673828-0.0605469,1.4570312-0.1826172c0.390625-0.1210938,0.6875-0.3203125,0.8925781-0.5976562
	c0.2050781-0.2763672,0.3066406-0.6386719,0.3066406-1.0869141c0-0.5371094-0.1572266-0.9746094-0.4726562-1.3115234
	C263.3427734,85.560791,262.6152344,85.3811035,261.5136719,85.3811035z"/>
<path class="st1" d="M277.2294922,94.3215332l-0.5810547-1.5273438h-4.9472656l-0.5810547,1.5605469
	c-0.2265625,0.6083984-0.4208984,1.0195312-0.5810547,1.2324219s-0.4238281,0.3193359-0.7890625,0.3193359
	c-0.3095703,0-0.5830078-0.1132812-0.8212891-0.3398438c-0.2382812-0.2275391-0.3564453-0.484375-0.3564453-0.7724609
	c0-0.1660156,0.0273438-0.3369141,0.0820312-0.5146484c0.0556641-0.1767578,0.1474609-0.4228516,0.2744141-0.7382812
	l3.1123047-7.9023438c0.0888672-0.2275391,0.1953125-0.5,0.3203125-0.8173828
	c0.1240234-0.3183594,0.2568359-0.5830078,0.3984375-0.7929688c0.140625-0.2109375,0.3261719-0.3808594,0.5556641-0.5107422
	s0.5136719-0.1953125,0.8505859-0.1953125c0.34375,0,0.6298828,0.0654297,0.859375,0.1953125
	s0.4150391,0.2978516,0.5566406,0.5019531c0.140625,0.2050781,0.2597656,0.4248047,0.3564453,0.6601562
	s0.2197266,0.5488281,0.3701172,0.9423828l3.1787109,7.8525391c0.2490234,0.5976562,0.3740234,1.0322266,0.3740234,1.3027344
	c0,0.2822266-0.1181641,0.5410156-0.3535156,0.7763672s-0.5185547,0.3525391-0.8505859,0.3525391
	c-0.1933594,0-0.359375-0.0341797-0.4980469-0.1035156s-0.2548828-0.1630859-0.3486328-0.2822266
	s-0.1953125-0.3017578-0.3027344-0.5478516C277.3994141,94.7268066,277.3066406,94.5090332,277.2294922,94.3215332z
	 M272.3486328,90.942627h3.6357422l-1.8339844-5.0214844L272.3486328,90.942627z"/>
<path class="st1" d="M287.09375,84.8000488l4.7392578,7.171875v-7.2382812c0-0.4697266,0.1005859-0.8232422,0.3027344-1.0576172
	c0.2021484-0.2353516,0.4746094-0.3535156,0.8173828-0.3535156c0.3544922,0,0.6337891,0.1181641,0.8388672,0.3535156
	c0.2050781,0.234375,0.3076172,0.5878906,0.3076172,1.0576172v9.5712891c0,1.0673828-0.4433594,1.6015625-1.328125,1.6015625
	c-0.2216797,0-0.4208984-0.03125-0.5976562-0.0947266c-0.1777344-0.0644531-0.34375-0.1650391-0.4980469-0.3037109
	c-0.1552734-0.1376953-0.2988281-0.2998047-0.4316406-0.4853516s-0.265625-0.375-0.3984375-0.5683594l-4.6240234-7.0888672
	v7.1298828c0,0.4648438-0.1083984,0.8164062-0.3232422,1.0546875c-0.2167969,0.2373047-0.4931641,0.3564453-0.8300781,0.3564453
	c-0.3496094,0-0.6289062-0.1201172-0.8388672-0.3603516c-0.2099609-0.2412109-0.3154297-0.5908203-0.3154297-1.0507812V85.107666
	c0-0.3984375,0.0439453-0.7109375,0.1328125-0.9384766c0.1054688-0.2490234,0.2792969-0.4521484,0.5234375-0.609375
	c0.2431641-0.1582031,0.5058594-0.2373047,0.7880859-0.2373047c0.2216797,0,0.4111328,0.0361328,0.5683594,0.1083984
	c0.1582031,0.0712891,0.2958984,0.1689453,0.4150391,0.2900391c0.1191406,0.1220703,0.2412109,0.2792969,0.3652344,0.4736328
	C286.8320312,84.3879395,286.9609375,84.5900879,287.09375,84.8000488z"/>
<path class="st1" d="M307.0253906,85.4309082h-5.5537109v2.9882812h5.1132812c0.3769531,0,0.6572266,0.0849609,0.8427734,0.2539062
	c0.1855469,0.1679688,0.2783203,0.390625,0.2783203,0.6679688c0,0.2763672-0.0917969,0.5019531-0.2734375,0.6767578
	c-0.1835938,0.1738281-0.4648438,0.2607422-0.8476562,0.2607422h-5.1132812v3.4619141h5.7441406
	c0.3876953,0,0.6796875,0.0898438,0.8759766,0.2695312s0.2949219,0.4189453,0.2949219,0.7177734
	c0,0.2880859-0.0986328,0.5214844-0.2949219,0.7021484c-0.1962891,0.1796875-0.4882812,0.2695312-0.8759766,0.2695312h-6.6982422
	c-0.5371094,0-0.9228516-0.1191406-1.1582031-0.3574219c-0.2353516-0.2373047-0.3525391-0.6220703-0.3525391-1.1533203v-9.1474609
	c0-0.3544922,0.0527344-0.6435547,0.1582031-0.8671875c0.1044922-0.2246094,0.2695312-0.3876953,0.4931641-0.4902344
	c0.2246094-0.1025391,0.5107422-0.1533203,0.859375-0.1533203h6.5078125c0.3925781,0,0.6845703,0.0869141,0.8759766,0.2617188
	c0.1904297,0.1738281,0.2861328,0.4023438,0.2861328,0.6845703c0,0.2871094-0.0957031,0.5185547-0.2861328,0.6933594
	C307.7099609,85.3439941,307.4179688,85.4309082,307.0253906,85.4309082z"/>
<path class="st1" d="M314.9716797,84.8166504v8.8574219h4.9960938c0.3984375,0,0.7050781,0.0966797,0.9179688,0.2900391
	c0.2128906,0.1943359,0.3193359,0.4375,0.3193359,0.7304688c0,0.2988281-0.1054688,0.5410156-0.3154297,0.7265625
	s-0.5175781,0.2783203-0.921875,0.2783203h-5.9511719c-0.5371094,0-0.9228516-0.1191406-1.1582031-0.3574219
	c-0.2353516-0.2373047-0.3525391-0.6220703-0.3525391-1.1533203v-9.3720703c0-0.4980469,0.1123047-0.8710938,0.3359375-1.1201172
	c0.2246094-0.2490234,0.5185547-0.3740234,0.8837891-0.3740234c0.3710938,0,0.671875,0.1230469,0.9013672,0.3701172
	C314.8564453,83.9387207,314.9716797,84.3137207,314.9716797,84.8166504z"/>
</svg>
